<?xml version="1.0" standalone="no"?>
<!DOCTYPE svg PUBLIC "-//W3C//DTD SVG 1.0//EN" "http://www.w3.org/TR/2001/REC-SVG-20010904/DTD/svg10.dtd">
<svg xmlns="http://www.w3.org/2000/svg" xmlns:xlink="http://www.w3.org/1999/xlink" id="body_1" width="1024" height="768">

<g transform="matrix(5.1717176 0 0 7.1111116 0 0)">
	<g transform="matrix(1 0 0 0.99889004 -0 -3.810463E-06)">
		<g transform="matrix(2.1292 0 0 2.1292 -0.48973 -0.8517)">
            <path d="M4.43 44.66L4.43 51.04L2.6699998 51.04L2.6699998 44.66L0.22999978 44.66L0.22999978 43.04L6.8599997 43.04L6.8599997 44.66L4.43 44.66zM9.219999 51.04L9.219999 43.04L15.259999 43.04L15.259999 44.61L10.969999 44.61L10.969999 46.23L14.74 46.23L14.74 47.8L10.969999 47.8L10.969999 49.48L15.32 49.48L15.32 51.05L9.219999 51.05zM21.71 51.18C 19.349998 51.18 17.599998 49.36 17.599998 47.06L17.599998 47.06L17.599998 47.04C 17.599998 44.760002 19.319998 42.9 21.769999 42.9C 23.279999 42.9 24.179998 43.4 24.929998 44.140003L24.929998 44.140003L23.809998 45.430004C 23.189997 44.870003 22.559998 44.530003 21.759998 44.530003C 20.409998 44.530003 19.439999 45.65 19.439999 47.020004L19.439999 47.020004L19.439999 47.040005C 19.439999 48.410004 20.39 49.560005 21.759998 49.560005C 22.669998 49.560005 23.239998 49.190006 23.859999 48.620007L23.859999 48.620007L24.98 49.750008C 24.17 50.63001 23.25 51.180008 21.71 51.180008zM32.449997 51.04L32.449997 47.83L29.199997 47.83L29.199997 51.04L27.439997 51.04L27.439997 43.04L29.199997 43.04L29.199997 46.21L32.449997 46.21L32.449997 43.04L34.209995 43.04L34.209995 51.04zM42.949997 51.04L39.069996 45.95L39.069996 51.04L37.329994 51.04L37.329994 43.04L38.949993 43.04L42.699993 47.97L42.699993 43.04L44.439995 43.04L44.439995 51.04zM51.249996 51.18C 48.779995 51.18 47.009995 49.34 47.009995 47.06L47.009995 47.06L47.009995 47.04C 47.009995 44.760002 48.809994 42.9 51.279995 42.9C 53.749996 42.9 55.519997 44.74 55.519997 47.02L55.519997 47.02L55.519997 47.04C 55.51 49.32 53.719997 51.18 51.249996 51.18zM53.67 47.04C 53.67 45.670002 52.66 44.52 51.25 44.52C 49.83 44.52 48.85 45.64 48.85 47.010002L48.85 47.010002L48.85 47.030003C 48.85 48.4 49.859997 49.550003 51.269997 49.550003C 52.679996 49.550003 53.67 48.430004 53.67 47.06zM58.039997 51.04L58.039997 43.04L59.799995 43.04L59.799995 49.440002L63.789997 49.440002L63.789997 51.04zM69.729996 51.18C 67.259995 51.18 65.49 49.34 65.49 47.06L65.49 47.06L65.49 47.04C 65.49 44.760002 67.29 42.9 69.759995 42.9C 72.22999 42.9 73.99999 44.74 73.99999 47.02L73.99999 47.02L73.99999 47.04C 73.98999 49.32 72.19999 51.18 69.729996 51.18zM72.149994 47.04C 72.149994 45.670002 71.13999 44.52 69.729996 44.52C 68.31 44.52 67.329994 45.64 67.329994 47.010002L67.329994 47.010002L67.329994 47.030003C 67.329994 48.4 68.34 49.550003 69.74999 49.550003C 71.15999 49.550003 72.149994 48.430004 72.149994 47.06zM80.329994 51.18C 77.84 51.18 76.119995 49.43 76.119995 47.06L76.119995 47.06L76.119995 47.04C 76.119995 44.760002 77.88999 42.9 80.31999 42.9C 81.759995 42.9 82.62999 43.29 83.45999 44L83.45999 44L82.34999 45.34C 81.72999 44.83 81.17999 44.53 80.259995 44.53C 78.979996 44.53 77.95999 45.66 77.95999 47.02L77.95999 47.02L77.95999 47.04C 77.95999 48.5 78.96999 49.58 80.37999 49.58C 81.01999 49.58 81.58999 49.420002 82.03999 49.100002L82.03999 49.100002L82.03999 47.960003L80.27 47.960003L80.27 46.440002L83.75 46.440002L83.75 49.920002C 82.92 50.61 81.79 51.18 80.33 51.18zM90.149994 47.85L90.149994 51.039997L88.38999 51.039997L88.38999 47.879997L85.30999 43.03L87.36999 43.03L89.27999 46.239998L91.21999 43.03L93.21999 43.03z" stroke="none" fill="#000000" fill-rule="nonzero" />
            <path d="M30.98 21.16C 30.77 22.57 30.369999 23.95 29.74 25.31C 28.82 27.39 27.539999 29.39 25.82 31.07C 22.58 34.35 17.74 36.43 12.79 36.43L12.79 36.43L0.2699995 36.43L0.2699995 29.23L12.78 29.23C 15.74 29.23 18.58 28.109999 20.5 26.11C 21.89 24.7 22.86 22.98 23.36 21.16L23.36 21.16L30.98 21.16zM30.98 15.67C 30.77 14.26 30.369999 12.88 29.74 11.52C 28.82 9.440001 27.539999 7.4400005 25.82 5.76C 22.58 2.4800003 17.74 0.4000001 12.78 0.4000001L12.78 0.4000001L0.2699995 0.4000001L0.2699995 7.6L12.78 7.6C 15.74 7.6 18.58 8.72 20.5 10.719999C 21.89 12.129999 22.86 13.849999 23.36 15.669999zM46.69 24.4L37.129997 36.43L27.649998 36.43L41.96 18.42L27.66 0.39999962L37.14 0.39999962L46.7 12.42L56.25 0.39999962L65.729996 0.39999962L51.409996 18.42L65.71999 36.43L56.239994 36.43zM70.02 21.16C 70.52 22.98 71.49 24.7 72.88 26.11C 74.799995 28.11 77.64 29.23 80.6 29.23L80.6 29.23L93.11 29.23L93.11 36.43L80.6 36.43C 75.64 36.43 70.799995 34.35 67.57 31.07C 65.85 29.39 64.57 27.39 63.65 25.31C 63.02 23.949999 62.620003 22.57 62.41 21.16zM70.02 15.67C 70.52 13.85 71.49 12.13 72.88 10.72C 74.799995 8.72 77.64 7.6000004 80.6 7.6000004L80.6 7.6000004L93.11 7.6000004L93.11 0.40000057L80.6 0.40000057C 75.64 0.40000057 70.799995 2.4800005 67.57 5.7600007C 65.85 7.4400005 64.57 9.440001 63.65 11.52C 63.02 12.88 62.620003 14.26 62.41 15.67z" stroke="none" fill="#5F249F" fill-rule="nonzero" />
		</g>
	</g>
</g>
</svg>