<?xml version="1.0" standalone="no"?>
<!DOCTYPE svg PUBLIC "-//W3C//DTD SVG 20010904//EN"
 "http://www.w3.org/TR/2001/REC-SVG-20010904/DTD/svg10.dtd">
<svg version="1.0" xmlns="http://www.w3.org/2000/svg"
 width="259.000000pt" height="172.000000pt" viewBox="0 0 259.000000 172.000000"
 preserveAspectRatio="xMidYMid meet">

<g transform="translate(0.000000,172.000000) scale(0.100000,-0.100000)"
fill="#000000" stroke="none">
<path d="M330 1316 l0 -74 163 -4 c144 -3 167 -6 203 -25 47 -25 84 -65 103
-112 l13 -31 80 0 80 0 -6 28 c-13 51 -57 130 -95 170 -92 94 -181 122 -393
122 l-148 0 0 -74z"/>
<path d="M1037 1218 c75 -95 142 -180 150 -189 12 -14 -4 -38 -125 -190 -76
-96 -141 -180 -146 -186 -5 -10 15 -13 91 -13 l98 1 94 119 c52 66 97 120 100
120 3 0 49 -54 101 -120 l95 -120 99 0 c77 0 96 3 89 13 -6 6 -72 90 -147 185
-94 119 -135 177 -128 185 5 7 70 90 145 185 76 94 137 174 137 177 0 3 -43 5
-95 5 l-94 0 -101 -125 -101 -126 -101 126 -100 125 -99 0 -99 0 137 -172z"/>
<path d="M1913 1375 c-119 -32 -203 -102 -254 -208 -45 -95 -43 -97 50 -97 76
0 79 1 85 26 4 14 28 47 54 73 61 61 101 71 281 71 l141 0 0 75 0 75 -152 -1
c-98 0 -172 -5 -205 -14z"/>
<path d="M810 947 c0 -34 -63 -107 -112 -131 -49 -25 -60 -26 -210 -26 l-158
0 0 -76 0 -76 183 4 c173 3 185 4 239 30 80 37 142 98 183 181 52 104 51 107
-45 107 -60 0 -80 -3 -80 -13z"/>
<path d="M1630 939 c0 -12 13 -49 30 -83 36 -76 108 -147 188 -184 54 -26 66
-27 240 -30 l183 -4 -3 74 -3 73 -171 5 c-166 5 -172 6 -212 33 -26 17 -54 49
-73 82 l-31 55 -74 0 c-69 0 -74 -2 -74 -21z"/>
<path d="M330 480 c0 -15 7 -20 25 -20 24 0 25 -2 25 -65 0 -58 2 -65 20 -65
18 0 20 7 20 65 0 63 1 65 25 65 18 0 25 5 25 20 0 18 -7 20 -70 20 -63 0 -70
-2 -70 -20z"/>
<path d="M520 415 l0 -85 65 0 c58 0 65 2 65 20 0 17 -7 20 -45 20 -33 0 -45
4 -45 15 0 11 11 15 41 15 33 0 40 3 37 18 -2 12 -14 18 -41 20 -50 4 -47 20
5 24 31 2 44 8 46 21 3 15 -5 17 -62 17 l-66 0 0 -85z"/>
<path d="M723 485 c-42 -30 -39 -108 6 -142 22 -17 86 -16 101 2 19 22 3 34
-39 28 -33 -5 -41 -2 -51 16 -23 44 19 93 61 71 15 -9 24 -8 36 1 38 32 -70
54 -114 24z"/>
<path d="M900 414 c0 -76 2 -85 18 -82 11 2 18 14 20 36 3 28 7 32 33 32 27 0
29 -3 29 -35 0 -28 4 -35 20 -35 18 0 20 7 20 85 0 78 -2 85 -20 85 -16 0 -20
-7 -20 -30 0 -27 -3 -30 -30 -30 -27 0 -30 3 -30 30 0 23 -4 30 -20 30 -18 0
-20 -7 -20 -86z"/>
<path d="M1100 415 c0 -78 2 -85 19 -85 17 0 20 8 23 51 l3 50 38 -50 c55 -75
67 -69 67 34 0 78 -2 85 -20 85 -17 0 -20 -7 -20 -46 l0 -47 -35 47 c-21 27
-44 46 -55 46 -18 0 -20 -7 -20 -85z"/>
<path d="M1330 475 c-53 -57 -13 -145 66 -145 77 0 114 91 61 148 -30 32 -95
31 -127 -3z m94 -21 c32 -31 14 -84 -29 -84 -62 0 -60 98 2 100 6 0 19 -7 27
-16z"/>
<path d="M1532 418 l3 -83 63 -3 c57 -3 62 -1 62 18 0 17 -6 20 -45 20 l-45 0
0 65 c0 59 -2 65 -20 65 -20 0 -21 -5 -18 -82z"/>
<path d="M1715 475 c-55 -54 -16 -145 60 -145 27 0 44 8 67 30 26 27 30 36 25
68 -8 47 -38 72 -89 72 -28 0 -46 -7 -63 -25z m95 -25 c11 -11 20 -26 20 -33
0 -53 -77 -64 -95 -13 -8 24 -6 31 14 47 29 24 36 24 61 -1z"/>
<path d="M1939 481 c-19 -15 -24 -29 -24 -66 0 -56 28 -85 82 -85 55 0 73 15
73 60 0 39 -1 40 -35 40 -28 0 -35 -4 -35 -20 0 -11 7 -20 15 -20 8 0 15 -4
15 -10 0 -20 -59 -11 -70 10 -23 43 20 92 61 69 25 -13 45 1 36 25 -9 24 -88
21 -118 -3z"/>
<path d="M2135 445 c21 -32 35 -67 35 -85 0 -25 4 -31 18 -28 12 2 19 16 22
44 3 22 15 53 26 70 36 51 37 54 12 54 -16 0 -30 -10 -42 -31 l-19 -31 -19 31
c-13 21 -28 31 -44 31 -24 0 -24 0 11 -55z"/>
</g>
</svg>
